<?xml version="1.0" encoding="utf-8"?>
<!-- Svg Vector Icons : http://www.onlinewebfonts.com/icon -->
<!DOCTYPE svg PUBLIC "-//W3C//DTD SVG 1.1//EN" "http://www.w3.org/Graphics/SVG/1.1/DTD/svg11.dtd">
<svg version="1.1" xmlns="http://www.w3.org/2000/svg" xmlns:xlink="http://www.w3.org/1999/xlink" x="0px" y="0px" viewBox="0 0 1000 1000" enable-background="new 0 0 1000 1000" xml:space="preserve">
<metadata> Svg Vector Icons : http://www.onlinewebfonts.com/icon </metadata>
<g><g transform="translate(0.000000,472.000000) scale(0.100000,-0.100000)"><path d="M3111,4186.9c-308.8-88.2-598.3-331.8-734.5-617.5c-92.1-191.8-118.9-310.7-118.9-521.6c0-310.7,113.1-584.9,335.6-811.2l136.2-136.2l-80.5-44.1c-46-23-138.1-90.1-209-147.7l-128.5-105.5l-136.2,34.5c-172.6,42.2-458.3,42.2-636.7,0c-448.8-107.4-815-441.1-983.8-897.5c-47.9-130.4-51.8-163-51.8-437.2c0-274.2,3.8-308.8,51.8-437.2c92-257,249.3-475.6,466-654c51.8-44.1,69-67.1,49.9-72.9c-13.4-5.8-101.6-61.4-193.7-122.7c-358.6-239.7-613.7-598.3-732.6-1035.6c-42.2-153.4-44.1-193.7-44.1-776.7c0-705.8-11.5-657.8,182.2-755.6c437.2-220.5,1325.2-320.3,2149.8-239.7c249.3,24.9,485.2,67.1,749.8,134.2l51.8,13.4l5.8-469.8l5.8-469.9l47.9-53.7c107.4-117,473.7-241.6,901.3-308.8c318.3-49.8,1292.6-49.8,1610.9,0c427.7,67.1,794,191.8,901.3,308.8l47.9,53.7l5.8,469.9l5.7,469.8l51.8-13.4c264.6-67.1,500.5-109.3,749.9-134.2c824.6-80.5,1712.6,19.2,2149.8,239.7c193.7,97.8,182.2,49.8,182.2,755.6c0,583-1.9,623.3-44.1,776.7c-118.9,437.2-374,795.9-732.6,1035.6c-92,61.3-180.3,117-193.7,122.7c-19.2,5.8-1.9,28.8,49.9,72.9c216.7,178.4,374,397,466,654c47.9,128.5,51.8,163,51.8,437.2c0,274.2-3.8,306.8-51.8,437.2c-168.8,456.4-535,790.1-983.8,897.5c-187.9,44.1-496.7,40.3-671.2-9.6l-134.2-38.4l-57.5,53.7c-80.6,74.8-291.5,228.2-335.6,241.6c-30.7,9.6-15.3,30.7,94,140c466,467.9,467.9,1187.1,1.9,1653.1c-239.7,241.6-490.9,345.2-828.5,345.2c-207.1,0-349-32.6-519.7-117c-301.1-151.5-531.2-433.4-619.5-759.4c-38.4-143.8-38.4-443,0-584.9c51.8-187.9,153.4-366.3,299.2-517.8c72.9-76.7,128.5-141.9,118.9-145.7c-38.4-11.5-255.1-164.9-335.6-235.9c-197.5-172.6-381.6-471.8-446.8-723c-19.2-76.7-40.3-138.1-46-138.1c-5.7,0-24.9,57.5-44.1,128.5c-105.5,400.8-377.8,736.4-794,974.2c-1.9,0,53.7,61.4,124.7,136.2c143.8,149.6,253.1,337.5,299.2,517.8c38.4,149.6,40.3,444.9,1.9,588.7c-105.5,404.6-443,742.2-847.7,847.7C3571.3,4233,3258.7,4229.1,3111,4186.9z M3749.6,3763.1c172.6-78.6,306.8-214.8,391.2-393.1c57.5-122.7,63.3-149.6,63.3-316.4c0-164.9-5.8-193.7-61.4-310.7c-241.6-510.1-872.6-629-1263.8-237.8c-303,304.9-310.7,770.9-15.3,1085.5c90.1,95.9,260.8,197.5,383.6,230.1C3387.2,3855.2,3603.9,3830.2,3749.6,3763.1z M6850.6,3766.9c239.7-113.2,404.6-326,452.6-584.9c94-512-385.5-991.5-897.5-897.5c-537,99.7-817,682.7-554.2,1154.5c57.5,99.7,201.4,243.5,306.9,303C6361.6,3857.1,6635.8,3866.7,6850.6,3766.9z M3734.3,1835.8c485.2-128.5,830.4-554.2,868.7-1070.1l7.7-109.3l-201.4-97.8c-174.5-84.4-222.5-118.9-366.3-262.7c-249.3-251.2-362.5-477.5-402.7-811.2c-59.5-471.8,136.2-941.6,517.8-1244.6l90.1-71l-80.5-38.4c-117-57.5-381.6-262.7-467.9-362.4L3625-2320l-11.5,199.5c-13.4,212.9-36.4,320.3-118.9,535c-117,306.8-431.5,673.1-721.1,843.8c-78.6,44.1-145.8,84.4-149.6,88.2c-5.8,3.8,11.5,21.1,38.4,38.3c101.6,71,253.1,230.1,333.7,349c161.1,245.5,230.1,473.7,230.1,769c0,253.1-26.8,360.5-147.7,611.8c-80.5,166.9-118.9,222.5-243.5,347.1l-147.7,147.7l86.3,59.4c124.7,82.5,235.9,134.2,352.9,166.9C3258.7,1870.3,3600,1872.2,3734.3,1835.8z M6827.6,1835.8c124.7-32.6,274.2-103.6,389.3-186l76.7-55.6l-138.1-141.9c-113.2-115.1-157.3-178.3-235.9-339.4c-118.9-249.3-145.7-358.6-145.7-609.8c0-295.3,69-523.5,230.1-769c80.5-118.9,232-278.1,333.7-349c26.8-17.3,44.1-34.5,38.3-38.3c-3.8-3.8-71-44.1-149.6-88.2c-289.6-170.7-604.1-537-721.1-843.8c-82.5-214.8-105.5-322.2-118.9-535L6375-2320l-74.8,88.2c-86.3,99.7-350.9,304.9-467.9,362.4l-80.5,38.4l90.1,71c381.6,303,577.3,772.9,517.8,1244.6c-40.3,333.7-153.4,560-400.8,807.4c-164.9,164.9-304.9,255.1-504.4,326l-99.7,36.4l5.8,111.2c7.7,174.5,40.3,289.6,124.6,466c140,289.6,416.2,515.9,732.6,604.1C6350.1,1870.3,6691.5,1872.2,6827.6,1835.8z M2090.8,1452.2c351-90.1,623.3-358.6,713.4-701.9c36.4-132.3,36.4-362.5,0-494.8c-92.1-349-391.2-638.6-734.5-709.6C1544.2-563.3,1028.3-239.3,905.6,274.7c-143.8,611.8,314.5,1198.6,939.7,1204.3C1920.1,1481,2031.3,1467.5,2090.8,1452.2z M8382.9,1450.3c349-90.1,629-372,711.5-719.2C9284.3-78.2,8455.8-735.9,7704-373.5c-157.3,76.7-356.7,272.3-429.6,420c-193.7,395-126.6,834.2,170.7,1139.1C7688.7,1435,8049.2,1536.6,8382.9,1450.3z M5153.4,292c364.4-57.5,690.4-349,790.1-707.7c124.7-452.6-90.1-926.3-517.8-1139.1l-163-80.5H5000h-262.7l-163,80.5c-730.7,362.5-734.5,1394.2-5.7,1752.8C4777.5,299.6,4934.8,324.6,5153.4,292z M2152.1-906.6c74.8-15.3,216.7-69,314.5-117c149.6-74.8,211-118.9,349-255.1c191.8-189.8,299.2-368.2,366.3-606c40.3-141.9,42.2-191.8,44.1-642.5v-489l-105.5-42.2c-258.9-101.6-726.8-163-1265.7-163s-980,59.5-1275.3,170.7l-95.9,36.4l1.9,458.3c0,542.7,21.1,671.2,155.3,932C922.8-1071.6,1540.4-778.1,2152.1-906.6z M8438.5-908.5c397-90.1,734.5-352.9,920.5-715.3c134.2-260.8,155.3-389.3,155.3-932l1.9-458.3l-95.9-36.4c-295.3-111.2-736.4-170.7-1275.3-170.7c-538.9,0-1006.8,61.4-1265.7,163l-105.5,42.2v489c1.9,450.7,3.8,500.5,44.1,642.5c67.1,237.8,174.5,416.2,366.3,606c270.4,268.5,573.4,395.1,947.4,398.9C8223.7-877.9,8361.8-891.3,8438.5-908.5z M5374-2107.1c471.8-145.8,815-491,949.3-957c36.4-124.6,44.1-207.1,51.8-634.8l9.6-491l-74.8-30.7c-611.8-243.6-2007.9-243.6-2619.7,0l-74.8,30.7l9.6,491c7.7,427.7,15.3,510.1,51.8,634.8c149.6,517.8,575.3,901.3,1108.5,997.2C4929-2040,5222.5-2059.2,5374-2107.1z"/></g></g>
</svg>