<svg id="svg" version="1.1" xmlns="http://www.w3.org/2000/svg" xmlns:xlink="http://www.w3.org/1999/xlink" width="400" height="400" viewBox="0, 0, 400,400"><g id="svgg"><path id="path0" d="M300.195 46.095 C 290.982 46.941,281.872 53.325,278.882 61.032 C 278.444 62.162,277.611 63.989,277.031 65.093 C 274.949 69.056,265.859 87.009,263.609 91.602 C 260.977 96.975,258.336 102.173,255.670 107.227 C 254.651 109.160,250.562 117.202,246.585 125.098 C 242.240 133.721,239.134 139.453,238.805 139.453 C 238.489 139.453,237.188 137.260,235.734 134.277 C 234.347 131.431,231.789 126.377,230.049 123.047 C 224.463 112.353,220.378 104.408,213.381 90.625 C 201.640 67.501,197.768 63.061,185.352 58.483 C 178.462 55.944,180.919 56.055,131.641 56.055 L 86.914 56.055 83.398 56.928 C 59.934 62.757,48.367 86.220,58.217 108.008 C 58.605 108.867,59.576 111.240,60.375 113.281 C 61.659 116.565,62.960 119.652,64.078 122.070 C 64.276 122.500,65.392 125.225,66.557 128.125 C 71.465 140.342,74.312 147.221,75.426 149.555 C 78.945 156.925,79.877 162.581,78.137 165.993 C 76.780 168.652,77.848 168.533,53.320 168.768 C 27.074 169.020,27.162 169.007,21.101 173.580 C 6.079 184.912,11.033 208.700,29.492 213.869 C 31.534 214.441,34.981 214.551,56.250 214.724 L 80.664 214.923 85.319 213.705 C 114.331 206.119,134.506 169.024,122.602 145.154 C 121.949 143.845,120.990 141.631,120.469 140.234 C 119.949 138.838,119.359 137.344,119.159 136.914 C 118.958 136.484,117.922 134.111,116.857 131.641 C 115.792 129.170,114.037 125.127,112.958 122.656 C 107.871 111.009,106.473 106.226,107.277 103.223 L 107.513 102.344 136.381 102.344 L 165.250 102.344 166.774 103.306 C 169.077 104.760,169.991 106.203,175.381 116.900 C 178.113 122.322,181.371 128.604,182.621 130.859 C 186.508 137.873,186.754 138.330,189.763 144.141 C 191.377 147.256,193.832 151.826,195.219 154.297 C 196.606 156.768,198.664 160.547,199.791 162.695 C 202.835 168.493,204.510 171.575,207.328 176.563 C 208.724 179.033,210.306 181.846,210.843 182.813 C 212.611 185.993,218.477 195.093,219.530 196.289 C 220.098 196.934,220.859 197.940,221.222 198.526 C 222.071 199.897,229.702 206.557,231.794 207.752 C 235.839 210.063,236.875 210.595,239.488 211.707 C 241.022 212.360,244.059 213.282,246.237 213.757 L 250.195 214.620 303.125 214.549 C 360.631 214.472,359.096 214.530,363.868 212.238 C 368.917 209.814,374.763 202.841,375.847 197.949 C 376.026 197.144,376.340 195.737,376.545 194.824 C 378.402 186.576,372.803 175.828,364.341 171.394 C 359.534 168.876,361.426 168.986,319.252 168.760 C 276.055 168.529,279.905 168.858,279.349 165.345 C 279.044 163.417,279.102 163.237,281.339 159.121 C 282.606 156.790,285.276 151.719,287.272 147.852 C 289.268 143.984,292.358 138.184,294.138 134.961 C 295.919 131.738,298.685 126.481,300.285 123.277 C 301.885 120.074,303.655 116.734,304.218 115.855 C 304.781 114.977,306.584 111.621,308.224 108.398 C 311.173 102.604,313.271 98.563,318.264 89.063 C 325.608 75.089,325.933 74.226,325.924 68.750 C 325.903 57.416,317.909 48.017,306.836 46.308 C 303.722 45.828,303.271 45.813,300.195 46.095 " stroke="none" fill="#ed6804" fill-rule="evenodd"></path><path id="path1" d="M99.805 263.881 C 99.160 264.176,97.452 264.426,96.010 264.436 C 92.318 264.460,92.414 264.152,92.397 275.977 L 92.383 285.742 86.426 285.850 L 80.469 285.958 80.469 295.313 L 80.469 304.667 86.426 304.775 L 92.383 304.883 92.578 330.859 L 92.773 356.836 93.869 359.961 C 97.512 370.355,105.722 375.506,118.612 375.486 C 121.221 375.481,123.946 375.302,124.666 375.088 C 125.387 374.873,126.987 374.489,128.223 374.235 L 130.469 373.772 130.469 364.383 C 130.469 355.588,130.426 355.013,129.785 355.294 C 126.256 356.839,120.484 356.829,118.109 355.273 C 114.689 353.033,114.508 351.497,114.587 325.391 L 114.648 304.883 122.559 304.777 L 130.469 304.671 130.469 295.304 L 130.469 285.938 122.461 285.938 L 114.453 285.938 114.453 274.609 L 114.453 263.281 107.715 263.313 C 102.888 263.336,100.644 263.497,99.805 263.881 M33.594 285.428 C 17.413 287.165,7.001 298.914,7.929 314.389 C 8.585 325.323,12.834 330.752,24.805 335.955 C 26.000 336.475,31.878 338.120,35.156 338.852 C 47.240 341.550,52.851 345.608,51.796 350.884 C 49.804 360.844,32.086 359.557,20.920 348.641 C 19.316 347.074,17.952 345.919,17.889 346.075 C 17.825 346.231,16.367 347.572,14.648 349.055 C 12.930 350.538,11.172 352.071,10.742 352.462 C 10.313 352.853,8.606 354.064,6.951 355.154 C 3.492 357.431,3.499 357.307,6.628 361.266 C 14.855 371.674,28.148 376.811,44.141 375.763 C 63.808 374.475,74.139 364.606,73.973 347.266 C 73.843 333.774,67.627 326.869,51.095 321.855 C 42.423 319.225,41.345 318.922,37.317 317.980 C 30.062 316.285,27.092 312.550,29.656 308.346 C 33.532 301.989,45.537 302.730,57.525 310.068 C 58.764 310.826,59.837 311.376,59.910 311.290 C 59.983 311.203,60.926 309.639,62.005 307.813 C 64.893 302.926,66.449 300.422,67.907 298.318 C 69.502 296.017,69.427 295.806,66.164 293.410 C 57.344 286.933,45.838 284.114,33.594 285.428 M164.111 286.116 C 157.626 287.596,153.855 289.266,146.979 293.705 C 142.979 296.288,142.516 296.859,143.485 298.016 C 144.508 299.238,147.559 304.570,149.426 308.398 C 150.473 310.547,151.377 312.373,151.435 312.456 C 151.492 312.539,152.643 311.894,153.992 311.022 C 168.734 301.497,182.558 302.171,187.337 312.649 C 188.330 314.824,189.248 321.875,188.539 321.875 C 188.406 321.875,186.932 321.416,185.262 320.854 C 168.188 315.114,149.412 320.631,142.892 333.304 C 138.876 341.110,138.884 354.508,142.909 361.914 C 150.722 376.291,175.018 380.455,186.944 369.462 L 188.666 367.875 192.205 371.242 L 195.743 374.609 202.950 374.609 L 210.156 374.609 210.171 369.629 C 210.254 341.972,210.062 313.670,209.780 312.187 C 207.619 300.792,199.943 291.374,189.783 287.651 C 182.704 285.056,171.655 284.396,164.111 286.116 M341.992 285.405 C 336.512 286.235,325.829 290.131,323.989 291.971 C 323.619 292.341,322.948 292.804,322.498 293.001 C 322.048 293.198,320.849 293.958,319.833 294.691 C 318.817 295.423,317.763 296.101,317.489 296.196 C 317.103 296.332,317.123 296.535,317.578 297.111 C 318.238 297.945,318.310 298.072,320.896 302.930 C 324.894 310.440,325.893 312.104,326.404 312.107 C 326.640 312.108,327.931 311.399,329.275 310.530 C 346.619 299.321,361.618 303.219,362.782 319.238 C 363.035 322.714,363.160 322.621,360.238 321.119 C 356.169 319.027,345.435 318.196,337.571 319.363 C 330.154 320.465,323.640 324.087,319.808 329.241 C 318.906 330.453,318.059 331.533,317.925 331.641 C 315.850 333.301,313.508 342.935,313.792 348.633 C 314.626 365.313,325.820 375.572,343.164 375.548 C 348.378 375.541,353.082 374.698,354.883 373.449 C 355.098 373.300,355.889 372.939,356.641 372.647 C 358.088 372.086,363.504 368.557,363.899 367.918 C 364.257 367.338,364.915 368.051,366.802 371.059 C 368.872 374.356,368.438 374.216,377.455 374.494 L 384.793 374.720 384.665 343.707 C 384.549 315.477,384.475 312.485,383.849 310.352 C 380.105 297.596,372.597 289.989,360.253 286.444 C 356.893 285.480,345.703 284.842,341.992 285.405 M217.820 289.160 C 219.212 292.403,219.717 293.705,221.115 297.656 C 221.534 298.838,222.030 300.156,222.219 300.586 C 222.625 301.510,223.172 302.909,225.576 309.180 C 227.404 313.946,230.779 322.664,233.668 330.078 C 234.547 332.334,235.936 335.762,236.755 337.695 C 237.574 339.629,239.146 343.672,240.249 346.680 C 241.351 349.688,242.748 353.379,243.354 354.883 C 243.960 356.387,245.286 359.814,246.301 362.500 C 247.316 365.186,248.367 367.910,248.636 368.555 C 248.905 369.199,249.520 370.693,250.002 371.875 C 251.182 374.764,250.413 374.597,262.528 374.603 L 273.299 374.609 275.321 369.934 C 276.434 367.363,277.344 365.101,277.344 364.908 C 277.344 364.715,277.684 363.699,278.099 362.650 C 278.515 361.601,279.642 358.721,280.604 356.250 C 281.567 353.779,283.146 349.736,284.113 347.266 C 285.080 344.795,286.680 340.664,287.669 338.086 C 288.658 335.508,289.810 332.607,290.229 331.641 C 290.648 330.674,291.968 327.334,293.161 324.219 C 294.355 321.104,295.498 318.203,295.702 317.773 C 296.346 316.412,299.495 308.124,300.524 305.078 C 301.976 300.781,302.759 298.689,303.082 298.245 C 303.240 298.029,303.861 296.533,304.463 294.922 C 305.064 293.311,306.064 290.783,306.685 289.305 C 307.305 287.827,307.813 286.465,307.813 286.278 C 307.813 286.091,302.378 285.938,295.735 285.938 L 283.658 285.938 283.068 287.598 C 282.743 288.511,282.183 290.137,281.824 291.211 C 280.577 294.942,275.061 310.752,274.397 312.500 C 273.687 314.368,269.148 327.544,265.146 339.355 C 263.817 343.276,262.635 346.484,262.518 346.482 C 262.203 346.480,258.796 337.126,249.359 310.352 C 248.602 308.203,246.671 302.578,245.068 297.852 C 243.465 293.125,241.883 288.511,241.552 287.598 L 240.951 285.938 228.693 285.938 L 216.436 285.938 217.820 289.160 M180.257 334.796 C 192.631 337.083,191.750 354.989,179.095 358.415 C 169.572 360.993,161.580 355.590,161.622 346.601 C 161.661 337.962,169.730 332.850,180.257 334.796 M356.704 335.334 C 362.651 337.468,365.056 345.385,361.789 352.067 C 357.022 361.815,339.168 361.036,336.370 350.957 C 333.233 339.656,344.540 330.968,356.704 335.334 " stroke="none" fill="#44545c" fill-rule="evenodd"></path><path id="path2" d="M0.000 200.000 L 0.000 400.000 200.000 400.000 L 400.000 400.000 400.000 200.000 L 400.000 0.000 200.000 0.000 L 0.000 0.000 0.000 200.000 M309.766 46.632 C 320.205 50.324,326.343 58.612,326.291 68.945 C 326.265 74.276,326.036 74.841,317.024 91.922 C 312.388 100.708,311.166 103.067,308.738 107.925 C 307.365 110.672,305.773 113.661,305.200 114.566 C 304.628 115.471,302.459 119.551,300.380 123.633 C 298.302 127.715,295.374 133.252,293.874 135.938 C 292.374 138.623,290.833 141.436,290.449 142.188 C 290.065 142.939,288.457 146.104,286.875 149.219 C 285.293 152.334,283.739 155.322,283.422 155.859 C 279.276 162.886,278.539 165.804,280.433 167.699 C 280.783 168.049,290.315 168.215,319.062 168.370 C 360.730 168.594,358.680 168.481,363.867 170.851 C 383.184 179.679,379.744 209.891,358.924 214.270 C 354.683 215.163,251.959 215.125,247.239 214.230 C 235.739 212.048,224.868 204.664,217.721 194.179 C 214.587 189.581,209.375 181.160,209.375 180.695 C 209.375 180.553,207.997 178.027,206.313 175.082 C 204.629 172.136,201.532 166.475,199.430 162.500 C 197.329 158.525,195.470 155.098,195.300 154.883 C 194.985 154.487,194.101 152.840,190.052 145.117 C 188.813 142.754,185.644 136.865,183.010 132.031 C 180.376 127.197,176.403 119.576,174.181 115.095 C 170.107 106.877,168.168 104.009,166.127 103.180 C 164.402 102.480,107.888 102.363,107.621 103.059 C 106.812 105.169,108.160 110.721,111.239 117.969 C 113.232 122.658,116.643 130.572,117.553 132.617 C 118.587 134.939,120.134 138.682,120.702 140.234 C 120.978 140.986,121.798 142.871,122.525 144.422 C 129.168 158.600,127.490 172.182,116.889 190.039 C 110.418 200.939,97.424 210.956,85.998 213.852 L 81.981 214.870 56.127 214.759 L 30.273 214.648 27.222 213.381 C 11.030 206.656,6.704 187.201,18.775 175.391 C 25.507 168.804,27.635 168.374,53.516 168.363 C 66.283 168.358,74.567 168.204,75.464 167.955 C 79.804 166.750,79.670 158.324,75.172 149.609 C 74.673 148.643,73.803 146.621,73.238 145.117 C 72.242 142.464,69.182 135.048,64.616 124.219 C 60.735 115.012,57.804 107.720,56.617 104.317 C 49.238 83.160,60.914 62.479,83.594 56.534 L 86.914 55.664 131.836 55.664 L 176.758 55.664 180.078 56.530 C 195.468 60.545,201.106 65.944,211.650 86.760 C 218.266 99.821,225.137 113.210,229.071 120.703 C 230.819 124.033,232.739 127.725,233.337 128.906 C 233.935 130.088,234.586 131.318,234.784 131.641 C 234.981 131.963,235.838 133.765,236.687 135.645 C 237.565 137.589,238.468 139.063,238.780 139.063 C 239.107 139.063,241.361 135.001,244.360 129.004 C 247.127 123.472,251.216 115.430,253.445 111.133 C 255.675 106.836,258.377 101.563,259.450 99.414 C 270.925 76.433,275.571 67.242,276.130 66.414 C 276.872 65.318,277.405 64.173,278.757 60.780 C 279.263 59.512,279.945 58.194,280.273 57.851 C 280.601 57.507,281.682 56.212,282.676 54.973 C 288.785 47.354,301.092 43.564,309.766 46.632 M114.844 274.211 L 114.844 285.531 122.754 285.636 L 130.664 285.742 130.769 295.410 L 130.873 305.078 122.819 305.078 L 114.765 305.078 114.915 327.832 C 115.078 352.606,114.976 351.474,117.290 354.136 C 119.104 356.221,125.104 356.806,128.810 355.257 C 129.560 354.944,130.328 354.688,130.516 354.688 C 130.705 354.688,130.859 359.046,130.859 364.373 L 130.859 374.058 128.418 374.566 C 127.075 374.846,125.402 375.248,124.700 375.460 C 123.998 375.673,121.273 375.854,118.645 375.864 C 105.655 375.910,97.243 370.580,93.472 359.915 L 92.383 356.836 92.267 330.957 L 92.151 305.078 86.108 305.078 L 80.064 305.078 80.169 295.410 L 80.273 285.742 86.264 285.634 L 92.255 285.526 92.126 275.848 C 91.967 263.956,91.929 264.072,96.005 264.045 C 97.450 264.035,99.160 263.786,99.805 263.491 C 100.649 263.104,102.917 262.945,107.910 262.922 L 114.844 262.891 114.844 274.211 M51.758 286.116 C 58.221 288.011,68.573 293.770,69.402 295.931 C 69.524 296.247,69.119 297.210,68.503 298.071 C 67.134 299.984,65.575 302.473,62.462 307.715 C 59.744 312.292,60.102 312.083,57.646 310.525 C 51.672 306.737,43.709 304.129,38.901 304.388 C 27.028 305.027,25.472 315.345,36.914 317.563 C 39.210 318.008,44.559 319.433,48.047 320.529 C 49.014 320.833,51.597 321.635,53.788 322.313 C 67.859 326.666,74.391 334.705,74.379 347.656 C 74.364 364.921,63.596 374.996,43.945 376.130 C 26.910 377.114,12.714 371.090,5.047 359.623 C 3.175 356.824,3.168 357.037,5.179 355.893 C 8.245 354.148,17.346 346.815,17.888 345.653 C 17.951 345.519,19.445 346.811,21.208 348.526 C 33.042 360.032,53.108 360.103,51.387 348.631 C 50.790 344.646,46.292 342.007,35.388 339.243 C 24.817 336.563,25.988 336.949,20.508 334.343 C 2.145 325.610,3.221 297.496,22.266 288.394 C 30.155 284.623,43.223 283.614,51.758 286.116 M185.352 285.849 C 197.151 289.113,205.803 297.219,209.316 308.304 L 210.337 311.523 210.455 343.262 L 210.573 375.000 203.420 375.000 C 195.213 375.000,195.881 375.226,191.524 370.970 L 188.712 368.223 186.967 369.832 C 177.414 378.637,157.767 377.945,147.807 368.454 C 136.784 357.949,136.446 338.097,147.102 327.123 C 155.778 318.188,173.937 315.569,187.598 321.282 C 188.204 321.536,188.280 321.309,188.272 319.280 C 188.207 303.682,171.718 299.894,153.992 311.405 C 152.643 312.281,151.457 312.916,151.358 312.816 C 151.258 312.716,150.281 310.804,149.187 308.568 C 147.286 304.680,145.455 301.419,143.488 298.417 C 142.181 296.422,142.156 296.459,146.955 293.342 C 152.760 289.572,157.511 287.388,162.500 286.197 C 164.756 285.658,166.953 285.127,167.383 285.016 C 169.427 284.490,182.656 285.103,185.352 285.849 M360.156 286.039 C 372.825 289.728,380.709 297.744,384.257 310.547 C 384.908 312.894,384.961 315.418,384.961 343.945 L 384.961 374.805 378.125 374.790 C 368.566 374.769,368.844 374.858,366.400 371.047 L 364.381 367.900 363.538 368.635 C 362.012 369.967,358.033 372.510,356.641 373.044 C 355.889 373.332,355.098 373.696,354.883 373.851 C 350.299 377.173,335.974 376.532,328.076 372.652 C 305.158 361.393,310.192 324.328,335.321 319.304 C 343.207 317.728,355.859 318.458,360.312 320.746 L 362.617 321.930 362.391 319.071 C 361.522 308.068,354.296 302.735,343.359 305.025 C 337.893 306.169,334.959 307.443,328.176 311.615 C 325.821 313.064,325.773 313.010,320.557 302.989 C 317.640 297.383,317.570 297.266,317.166 297.266 C 316.515 297.266,316.772 296.079,317.480 295.811 C 318.229 295.529,322.871 292.436,323.859 291.561 C 325.955 289.706,336.750 285.808,341.992 285.014 C 345.678 284.456,356.891 285.089,360.156 286.039 M241.349 286.230 C 241.547 286.606,243.209 291.309,245.042 296.680 C 248.761 307.578,250.656 313.026,253.328 320.508 C 254.325 323.301,255.465 326.553,255.861 327.734 C 256.609 329.970,259.768 338.638,261.377 342.871 C 261.887 344.213,262.398 345.312,262.512 345.312 C 262.698 345.312,264.395 340.657,265.930 335.938 C 266.244 334.971,267.120 332.422,267.875 330.273 C 269.186 326.544,270.891 321.654,277.745 301.953 C 279.427 297.119,281.387 291.494,282.101 289.453 L 283.398 285.742 295.847 285.639 L 308.296 285.536 308.090 286.420 C 307.977 286.907,307.347 288.623,306.690 290.234 C 306.033 291.846,305.032 294.382,304.465 295.871 C 303.898 297.360,303.292 298.854,303.118 299.191 C 302.596 300.203,301.277 303.616,300.844 305.078 C 300.228 307.156,299.375 309.457,297.078 315.234 C 295.925 318.135,294.172 322.617,293.183 325.195 C 292.193 327.773,291.041 330.674,290.621 331.641 C 290.201 332.607,288.872 335.947,287.668 339.063 C 284.014 348.514,282.822 351.570,281.039 356.055 C 280.099 358.418,278.724 362.021,277.984 364.063 C 277.243 366.104,275.951 369.355,275.113 371.289 L 273.590 374.805 262.659 374.908 C 254.312 374.987,251.576 374.895,251.086 374.518 C 250.505 374.071,248.450 369.089,243.789 356.836 C 242.890 354.473,241.998 352.188,241.807 351.758 C 241.616 351.328,240.724 348.955,239.825 346.484 C 238.926 344.014,237.619 340.674,236.919 339.063 C 235.723 336.308,234.441 333.068,229.502 320.313 C 224.561 307.556,223.492 304.768,222.835 302.930 C 222.451 301.855,221.990 300.810,221.810 300.605 C 221.631 300.401,221.484 299.998,221.484 299.710 C 221.484 299.312,217.631 289.442,216.145 286.035 C 215.759 285.151,240.882 285.345,241.349 286.230 M171.289 335.290 C 163.567 337.307,159.810 344.722,162.889 351.867 C 166.869 361.101,182.959 360.748,187.520 351.326 C 192.395 341.255,183.207 332.176,171.289 335.290 M345.117 335.312 C 338.086 337.536,334.883 343.523,336.752 350.946 C 339.147 360.460,357.121 361.261,361.433 352.046 C 366.606 340.993,357.307 331.457,345.117 335.312 " stroke="none" fill="#fbfbfb" fill-rule="evenodd"></path><path id="path3" d="M100.184 263.489 C 99.434 264.090,99.436 264.095,100.267 263.693 C 100.763 263.454,103.908 263.281,107.781 263.281 L 114.441 263.281 114.554 274.610 L 114.666 285.938 114.657 274.512 L 114.648 263.086 107.801 262.980 C 102.041 262.890,100.832 262.971,100.184 263.489 M92.351 278.125 C 92.351 282.314,92.408 284.028,92.479 281.934 C 92.549 279.839,92.549 276.411,92.479 274.316 C 92.408 272.222,92.351 273.936,92.351 278.125 M38.770 285.053 C 39.790 285.133,41.460 285.133,42.480 285.053 C 43.501 284.972,42.666 284.906,40.625 284.906 C 38.584 284.906,37.749 284.972,38.770 285.053 M172.378 285.055 C 173.621 285.132,175.554 285.132,176.674 285.053 C 177.795 284.974,176.777 284.911,174.414 284.912 C 172.051 284.913,171.134 284.977,172.378 285.055 M346.987 285.055 C 348.230 285.132,350.164 285.132,351.284 285.053 C 352.404 284.974,351.387 284.911,349.023 284.912 C 346.660 284.913,345.744 284.977,346.987 285.055 M32.719 285.433 C 33.205 285.526,33.908 285.522,34.282 285.425 C 34.655 285.327,34.258 285.250,33.398 285.255 C 32.539 285.259,32.233 285.339,32.719 285.433 M29.492 285.938 C 29.000 286.149,28.928 286.273,29.297 286.273 C 29.619 286.273,30.234 286.122,30.664 285.938 C 31.156 285.726,31.229 285.602,30.859 285.602 C 30.537 285.602,29.922 285.753,29.492 285.938 M80.206 288.477 C 80.208 289.980,80.279 290.548,80.363 289.737 C 80.448 288.927,80.446 287.696,80.360 287.003 C 80.274 286.310,80.205 286.973,80.206 288.477 M130.559 295.207 L 130.469 304.671 122.559 304.777 L 114.648 304.883 114.643 323.828 L 114.637 342.773 114.744 323.926 L 114.851 305.078 122.672 305.078 C 128.637 305.078,130.538 304.960,130.684 304.582 C 130.789 304.309,130.824 299.958,130.762 294.914 L 130.649 285.742 130.559 295.207 M80.209 294.141 C 80.209 295.752,80.278 296.411,80.363 295.605 C 80.447 294.800,80.447 293.481,80.363 292.676 C 80.278 291.870,80.209 292.529,80.209 294.141 M375.195 294.922 C 376.034 295.781,376.809 296.484,376.916 296.484 C 377.024 296.484,376.425 295.781,375.586 294.922 C 374.747 294.063,373.972 293.359,373.865 293.359 C 373.757 293.359,374.356 294.063,375.195 294.922 M12.109 296.875 C 11.650 297.520,11.363 298.047,11.470 298.047 C 11.578 298.047,12.041 297.520,12.500 296.875 C 12.959 296.230,13.247 295.703,13.139 295.703 C 13.032 295.703,12.568 296.230,12.109 296.875 M203.296 297.785 C 203.897 298.573,204.469 299.219,204.565 299.219 C 204.837 299.219,203.145 296.934,202.645 296.625 C 202.401 296.474,202.694 296.996,203.296 297.785 M301.626 301.775 C 300.971 303.211,301.096 303.517,301.804 302.212 C 302.134 301.602,302.332 301.030,302.242 300.940 C 302.153 300.851,301.876 301.226,301.626 301.775 M147.070 304.297 C 147.404 304.941,147.764 305.469,147.872 305.469 C 147.979 305.469,147.794 304.941,147.461 304.297 C 147.128 303.652,146.767 303.125,146.660 303.125 C 146.552 303.125,146.737 303.652,147.070 304.297 M41.439 304.050 C 41.528 304.129,42.305 304.300,43.164 304.431 C 44.253 304.597,44.490 304.562,43.945 304.315 C 43.195 303.975,41.103 303.754,41.439 304.050 M347.173 304.183 C 347.658 304.276,348.362 304.272,348.735 304.175 C 349.108 304.077,348.711 304.000,347.852 304.005 C 346.992 304.009,346.687 304.089,347.173 304.183 M86.325 304.975 L 92.182 305.098 92.287 329.209 L 92.392 353.320 92.387 329.102 L 92.383 304.883 86.425 304.867 L 80.468 304.851 86.325 304.975 M30.639 307.129 L 29.492 308.398 30.762 307.251 C 31.945 306.182,32.211 305.859,31.909 305.859 C 31.842 305.859,31.271 306.431,30.639 307.129 M210.339 336.523 C 210.339 349.199,210.389 354.328,210.449 347.921 C 210.509 341.514,210.509 331.143,210.449 324.874 C 210.389 318.606,210.339 323.848,210.339 336.523 M384.951 345.117 C 384.951 361.445,385.000 368.068,385.058 359.834 C 385.117 351.601,385.117 338.241,385.058 330.147 C 384.999 322.052,384.951 328.789,384.951 345.117 M188.413 319.141 C 188.413 320.752,188.482 321.411,188.566 320.605 C 188.650 319.800,188.650 318.481,188.566 317.676 C 188.482 316.870,188.413 317.529,188.413 319.141 M362.437 319.923 C 362.364 321.212,362.437 322.267,362.598 322.266 C 362.759 322.266,362.891 321.211,362.891 319.922 C 362.891 316.896,362.608 316.897,362.437 319.923 M169.835 318.646 C 170.753 318.728,172.160 318.727,172.960 318.643 C 173.760 318.559,173.008 318.492,171.289 318.493 C 169.570 318.495,168.916 318.563,169.835 318.646 M343.272 318.646 C 344.191 318.728,345.597 318.727,346.397 318.643 C 347.197 318.559,346.445 318.492,344.727 318.493 C 343.008 318.495,342.353 318.563,343.272 318.646 M349.707 319.019 C 350.083 319.118,350.698 319.118,351.074 319.019 C 351.450 318.921,351.143 318.841,350.391 318.841 C 349.639 318.841,349.331 318.921,349.707 319.019 M148.416 326.074 L 147.070 327.539 148.535 326.193 C 149.899 324.940,150.180 324.609,149.881 324.609 C 149.816 324.609,149.157 325.269,148.416 326.074 M13.672 329.492 C 14.401 330.244,15.085 330.859,15.192 330.859 C 15.300 330.859,14.791 330.244,14.063 329.492 C 13.334 328.740,12.649 328.125,12.542 328.125 C 12.435 328.125,12.943 328.740,13.672 329.492 M338.843 338.770 L 337.695 340.039 338.965 338.892 C 340.148 337.822,340.414 337.500,340.112 337.500 C 340.045 337.500,339.474 338.071,338.843 338.770 M139.587 347.461 C 139.588 349.180,139.657 349.834,139.740 348.915 C 139.822 347.997,139.821 346.590,139.737 345.790 C 139.653 344.990,139.586 345.742,139.587 347.461 M188.763 346.484 C 188.763 347.236,188.843 347.544,188.941 347.168 C 189.039 346.792,189.039 346.177,188.941 345.801 C 188.843 345.425,188.763 345.732,188.763 346.484 M51.653 350.000 C 51.653 350.752,51.734 351.060,51.832 350.684 C 51.930 350.308,51.930 349.692,51.832 349.316 C 51.734 348.940,51.653 349.248,51.653 350.000 M130.384 364.226 C 130.487 373.098,130.446 373.780,129.798 373.970 C 129.235 374.135,129.251 374.159,129.883 374.094 C 130.691 374.010,131.379 354.688,130.573 354.687 C 130.408 354.687,130.323 358.980,130.384 364.226 M243.387 355.664 C 243.387 355.879,243.638 356.494,243.945 357.031 C 244.252 357.568,244.504 357.832,244.504 357.617 C 244.504 357.402,244.252 356.787,243.945 356.250 C 243.638 355.713,243.387 355.449,243.387 355.664 M122.369 356.530 C 122.962 356.620,123.841 356.618,124.322 356.525 C 124.802 356.432,124.316 356.359,123.242 356.362 C 122.168 356.365,121.775 356.441,122.369 356.530 M175.103 358.874 C 175.697 358.964,176.576 358.961,177.056 358.869 C 177.537 358.776,177.051 358.703,175.977 358.705 C 174.902 358.708,174.509 358.784,175.103 358.874 M347.559 358.876 C 348.257 358.963,349.399 358.963,350.098 358.876 C 350.796 358.790,350.225 358.719,348.828 358.719 C 347.432 358.719,346.860 358.790,347.559 358.876 M210.273 361.719 C 210.273 362.900,210.347 363.384,210.436 362.793 C 210.526 362.202,210.526 361.235,210.436 360.645 C 210.347 360.054,210.273 360.537,210.273 361.719 M7.813 363.086 C 8.541 363.838,9.226 364.453,9.333 364.453 C 9.440 364.453,8.932 363.838,8.203 363.086 C 7.474 362.334,6.790 361.719,6.683 361.719 C 6.575 361.719,7.084 362.334,7.813 363.086 M210.308 369.727 C 210.309 372.520,210.371 373.611,210.446 372.152 C 210.522 370.693,210.521 368.407,210.445 367.074 C 210.369 365.740,210.307 366.934,210.308 369.727 M148.828 369.336 C 149.557 370.088,150.241 370.703,150.349 370.703 C 150.456 370.703,149.948 370.088,149.219 369.336 C 148.490 368.584,147.806 367.969,147.698 367.969 C 147.591 367.969,148.099 368.584,148.828 369.336 M186.889 369.629 L 185.742 370.898 187.012 369.751 C 188.195 368.682,188.461 368.359,188.159 368.359 C 188.092 368.359,187.521 368.931,186.889 369.629 M191.602 371.094 C 192.441 371.953,193.215 372.656,193.323 372.656 C 193.430 372.656,192.831 371.953,191.992 371.094 C 191.153 370.234,190.379 369.531,190.271 369.531 C 190.164 369.531,190.762 370.234,191.602 371.094 M109.180 374.609 C 109.609 374.794,110.225 374.945,110.547 374.945 C 110.916 374.945,110.844 374.821,110.352 374.609 C 109.922 374.425,109.307 374.274,108.984 374.274 C 108.615 374.274,108.687 374.398,109.180 374.609 M114.941 375.660 C 115.317 375.758,115.933 375.758,116.309 375.660 C 116.685 375.562,116.377 375.481,115.625 375.481 C 114.873 375.481,114.565 375.562,114.941 375.660 M120.215 375.666 C 120.698 375.759,121.489 375.759,121.973 375.666 C 122.456 375.573,122.061 375.497,121.094 375.497 C 120.127 375.497,119.731 375.573,120.215 375.666 M36.235 376.058 C 36.721 376.151,37.424 376.147,37.798 376.050 C 38.171 375.952,37.773 375.875,36.914 375.880 C 36.055 375.884,35.749 375.964,36.235 376.058 M41.699 376.064 C 42.397 376.150,43.540 376.150,44.238 376.064 C 44.937 375.977,44.365 375.906,42.969 375.906 C 41.572 375.906,41.001 375.977,41.699 376.064 " stroke="none" fill="#7e878d" fill-rule="evenodd"></path><path id="path4" d="M299.512 45.986 C 300.210 46.072,301.353 46.072,302.051 45.986 C 302.749 45.899,302.178 45.828,300.781 45.828 C 299.385 45.828,298.813 45.899,299.512 45.986 M316.016 49.671 C 316.123 49.764,317.441 50.969,318.945 52.350 L 321.680 54.860 319.531 52.597 C 318.350 51.352,317.031 50.146,316.602 49.918 C 316.172 49.690,315.908 49.579,316.016 49.671 M285.156 52.382 L 283.008 54.366 285.254 52.526 C 287.225 50.911,287.762 50.379,287.402 50.395 C 287.349 50.397,286.338 51.292,285.156 52.382 M322.446 56.543 C 323.049 57.456,323.616 58.203,323.707 58.203 C 323.989 58.203,322.493 55.826,321.906 55.341 C 321.601 55.089,321.844 55.630,322.446 56.543 M86.583 55.878 C 85.541 56.053,84.575 56.322,84.434 56.476 C 84.294 56.630,84.619 56.605,85.156 56.420 C 85.693 56.235,106.084 55.986,130.469 55.867 L 174.805 55.650 131.641 55.605 C 107.900 55.581,87.624 55.704,86.583 55.878 M177.724 56.458 C 179.330 56.749,180.705 56.926,180.779 56.852 C 180.998 56.633,177.007 55.856,175.860 55.895 C 175.279 55.914,176.119 56.168,177.724 56.458 M81.641 57.031 C 80.867 57.279,80.827 57.344,81.445 57.344 C 81.875 57.344,82.666 57.203,83.203 57.031 C 83.976 56.784,84.017 56.719,83.398 56.719 C 82.969 56.719,82.178 56.859,81.641 57.031 M192.969 61.827 C 192.969 61.901,193.540 62.381,194.238 62.892 C 195.024 63.467,195.297 63.561,194.954 63.139 C 194.434 62.499,192.969 61.530,192.969 61.827 M325.880 65.430 C 325.884 66.289,325.964 66.595,326.058 66.109 C 326.151 65.623,326.147 64.920,326.050 64.546 C 325.952 64.173,325.875 64.570,325.880 65.430 M64.638 67.285 L 61.914 70.117 64.746 67.393 C 67.376 64.863,67.757 64.453,67.470 64.453 C 67.411 64.453,66.136 65.728,64.638 67.285 M326.278 68.750 C 326.278 69.717,326.354 70.112,326.448 69.629 C 326.541 69.146,326.541 68.354,326.448 67.871 C 326.354 67.388,326.278 67.783,326.278 68.750 M325.880 72.070 C 325.884 72.930,325.964 73.235,326.058 72.749 C 326.151 72.263,326.147 71.560,326.050 71.187 C 325.952 70.813,325.875 71.211,325.880 72.070 M270.684 76.600 C 270.235 77.481,269.934 78.268,270.016 78.350 C 270.098 78.431,270.548 77.711,271.015 76.749 C 272.080 74.558,271.792 74.429,270.684 76.600 M323.892 77.946 C 323.237 79.383,323.362 79.689,324.070 78.383 C 324.400 77.774,324.597 77.202,324.508 77.112 C 324.419 77.023,324.141 77.398,323.892 77.946 M321.680 82.422 C 321.346 83.066,321.162 83.594,321.269 83.594 C 321.376 83.594,321.737 83.066,322.070 82.422 C 322.404 81.777,322.588 81.250,322.481 81.250 C 322.374 81.250,322.013 81.777,321.680 82.422 M54.934 84.801 C 54.799 85.480,54.708 86.497,54.733 87.061 C 54.758 87.625,54.936 87.136,55.129 85.975 C 55.505 83.712,55.345 82.748,54.934 84.801 M54.438 91.797 C 54.438 93.838,54.504 94.673,54.584 93.652 C 54.664 92.632,54.664 90.962,54.584 89.941 C 54.504 88.921,54.438 89.756,54.438 91.797 M109.269 102.626 C 109.962 102.712,111.193 102.713,112.003 102.629 C 112.813 102.544,112.246 102.474,110.742 102.472 C 109.238 102.470,108.575 102.539,109.269 102.626 M122.385 102.636 C 124.922 102.704,128.965 102.704,131.370 102.635 C 133.775 102.567,131.699 102.511,126.758 102.511 C 121.816 102.512,119.849 102.568,122.385 102.636 M142.871 102.636 C 146.577 102.700,152.642 102.700,156.348 102.636 C 160.054 102.572,157.021 102.519,149.609 102.519 C 142.197 102.519,139.165 102.572,142.871 102.636 M163.281 102.496 C 163.281 102.580,163.884 102.719,164.621 102.805 C 165.358 102.891,165.875 102.823,165.770 102.653 C 165.581 102.347,163.281 102.202,163.281 102.496 M107.148 105.469 C 107.148 106.650,107.222 107.134,107.311 106.543 C 107.401 105.952,107.401 104.985,107.311 104.395 C 107.222 103.804,107.148 104.287,107.148 105.469 M167.188 103.638 C 167.188 103.705,167.759 104.276,168.457 104.907 L 169.727 106.055 168.579 104.785 C 167.510 103.602,167.188 103.336,167.188 103.638 M107.477 108.203 C 107.477 108.525,107.628 109.141,107.813 109.570 C 108.024 110.063,108.148 110.135,108.148 109.766 C 108.148 109.443,107.997 108.828,107.813 108.398 C 107.601 107.906,107.477 107.834,107.477 108.203 M62.956 120.332 C 63.185 120.988,63.444 121.452,63.533 121.363 C 63.726 121.170,62.989 119.141,62.725 119.141 C 62.624 119.141,62.728 119.677,62.956 120.332 M300.662 122.481 C 299.228 125.405,299.360 125.751,300.826 122.910 C 301.475 121.653,301.940 120.560,301.860 120.480 C 301.780 120.400,301.241 121.300,300.662 122.481 M247.852 121.875 C 247.518 122.520,247.333 123.047,247.441 123.047 C 247.548 123.047,247.909 122.520,248.242 121.875 C 248.575 121.230,248.760 120.703,248.653 120.703 C 248.545 120.703,248.185 121.230,247.852 121.875 M112.918 122.461 C 112.918 122.676,113.170 123.291,113.477 123.828 C 113.784 124.365,114.035 124.629,114.035 124.414 C 114.035 124.199,113.784 123.584,113.477 123.047 C 113.170 122.510,112.918 122.246,112.918 122.461 M178.397 123.628 C 178.754 124.377,179.116 124.921,179.200 124.836 C 179.379 124.657,178.193 122.266,177.926 122.266 C 177.828 122.266,178.039 122.879,178.397 123.628 M231.522 125.972 C 231.879 126.721,232.241 127.265,232.325 127.180 C 232.504 127.001,231.318 124.609,231.051 124.609 C 230.953 124.609,231.164 125.222,231.522 125.972 M115.262 127.930 C 115.262 128.145,115.513 128.760,115.820 129.297 C 116.127 129.834,116.379 130.098,116.379 129.883 C 116.379 129.668,116.127 129.053,115.820 128.516 C 115.513 127.979,115.262 127.715,115.262 127.930 M295.898 131.641 C 295.565 132.285,295.380 132.813,295.488 132.813 C 295.595 132.813,295.956 132.285,296.289 131.641 C 296.622 130.996,296.807 130.469,296.700 130.469 C 296.592 130.469,296.232 130.996,295.898 131.641 M288.477 145.313 C 288.143 145.957,287.958 146.484,288.066 146.484 C 288.173 146.484,288.534 145.957,288.867 145.313 C 289.200 144.668,289.385 144.141,289.278 144.141 C 289.170 144.141,288.810 144.668,288.477 145.313 M124.867 151.758 C 125.001 152.617,125.259 153.672,125.440 154.102 C 125.648 154.597,125.679 154.312,125.524 153.320 C 125.390 152.461,125.132 151.406,124.951 150.977 C 124.742 150.481,124.711 150.766,124.867 151.758 M284.651 152.941 C 284.074 154.116,283.685 155.078,283.787 155.078 C 284.050 155.078,286.020 151.124,285.844 150.949 C 285.764 150.869,285.227 151.765,284.651 152.941 M125.872 156.641 C 125.872 157.393,125.952 157.700,126.051 157.324 C 126.149 156.948,126.149 156.333,126.051 155.957 C 125.952 155.581,125.872 155.889,125.872 156.641 M126.306 161.523 C 126.307 163.242,126.376 163.897,126.458 162.978 C 126.541 162.059,126.540 160.653,126.456 159.853 C 126.372 159.053,126.304 159.805,126.306 161.523 M78.622 163.281 C 78.622 164.248,78.698 164.644,78.791 164.160 C 78.884 163.677,78.884 162.886,78.791 162.402 C 78.698 161.919,78.622 162.314,78.622 163.281 M279.388 165.234 C 279.388 165.986,279.468 166.294,279.566 165.918 C 279.664 165.542,279.664 164.927,279.566 164.551 C 279.468 164.175,279.388 164.482,279.388 165.234 M125.888 166.797 C 125.888 167.764,125.964 168.159,126.057 167.676 C 126.150 167.192,126.150 166.401,126.057 165.918 C 125.964 165.435,125.888 165.830,125.888 166.797 M77.348 166.788 C 77.121 167.213,76.368 167.724,75.675 167.925 C 74.981 168.125,74.733 168.305,75.123 168.324 C 76.110 168.373,77.249 167.704,77.739 166.788 C 77.966 166.363,78.065 166.016,77.957 166.016 C 77.850 166.016,77.576 166.363,77.348 166.788 M279.688 167.091 C 279.688 168.769,279.351 168.755,318.349 168.656 L 355.273 168.563 318.035 168.363 C 281.744 168.169,280.782 168.145,280.242 167.406 C 279.937 166.989,279.688 166.847,279.688 167.091 M31.712 168.691 C 30.872 168.927,61.709 168.881,70.508 168.634 C 72.656 168.574,65.010 168.505,53.516 168.481 C 42.021 168.457,32.210 168.552,31.712 168.691 M355.957 169.019 C 356.333 169.118,356.948 169.118,357.324 169.019 C 357.700 168.921,357.393 168.841,356.641 168.841 C 355.889 168.841,355.581 168.921,355.957 169.019 M369.531 175.195 C 370.260 175.947,370.944 176.563,371.052 176.563 C 371.159 176.563,370.651 175.947,369.922 175.195 C 369.193 174.443,368.509 173.828,368.401 173.828 C 368.294 173.828,368.802 174.443,369.531 175.195 M11.850 191.797 C 11.850 193.408,11.919 194.067,12.003 193.262 C 12.088 192.456,12.088 191.138,12.003 190.332 C 11.919 189.526,11.850 190.186,11.850 191.797 M114.488 193.262 C 113.527 194.666,113.469 194.832,114.246 193.945 C 115.280 192.766,116.166 191.406,115.900 191.406 C 115.822 191.406,115.186 192.241,114.488 193.262 M218.359 195.435 C 218.359 195.502,218.931 196.073,219.629 196.704 L 220.898 197.852 219.751 196.582 C 218.682 195.399,218.359 195.133,218.359 195.435 M12.555 196.875 C 12.555 197.197,12.706 197.813,12.891 198.242 C 13.102 198.735,13.226 198.807,13.226 198.438 C 13.226 198.115,13.075 197.500,12.891 197.070 C 12.679 196.578,12.555 196.506,12.555 196.875 M223.047 200.977 C 223.776 201.729,224.460 202.344,224.567 202.344 C 224.675 202.344,224.166 201.729,223.438 200.977 C 222.709 200.225,222.024 199.609,221.917 199.609 C 221.810 199.609,222.318 200.225,223.047 200.977 M13.672 200.150 C 13.672 200.569,14.834 202.734,15.059 202.734 C 15.167 202.734,14.964 202.163,14.609 201.465 C 13.884 200.039,13.672 199.742,13.672 200.150 M106.229 202.246 L 104.883 203.711 106.348 202.365 C 107.711 201.112,107.992 200.781,107.694 200.781 C 107.629 200.781,106.969 201.440,106.229 202.246 M225.000 202.466 C 225.000 202.533,225.571 203.104,226.270 203.736 L 227.539 204.883 226.392 203.613 C 225.322 202.430,225.000 202.164,225.000 202.466 M368.146 209.473 L 366.602 211.133 368.262 209.589 C 369.806 208.153,370.101 207.813,369.806 207.813 C 369.742 207.813,368.995 208.560,368.146 209.473 M89.453 212.519 C 88.486 212.915,87.959 213.244,88.281 213.250 C 88.604 213.256,89.570 212.928,90.430 212.521 C 92.425 211.577,91.758 211.576,89.453 212.519 M29.102 214.063 C 29.531 214.247,30.234 214.393,30.664 214.387 C 31.292 214.378,31.254 214.314,30.469 214.063 C 29.133 213.635,28.106 213.635,29.102 214.063 M83.789 214.063 C 82.794 214.490,83.821 214.490,85.156 214.063 C 85.941 213.811,85.980 213.747,85.352 213.738 C 84.922 213.732,84.219 213.878,83.789 214.063 M33.116 214.740 C 34.035 214.822,35.441 214.821,36.241 214.737 C 37.041 214.653,36.289 214.586,34.570 214.587 C 32.852 214.588,32.197 214.657,33.116 214.740 M250.298 214.729 C 250.783 214.823,251.487 214.819,251.860 214.722 C 252.233 214.624,251.836 214.547,250.977 214.552 C 250.117 214.556,249.812 214.636,250.298 214.729 M259.082 214.744 C 260.962 214.816,264.038 214.816,265.918 214.744 C 267.798 214.672,266.260 214.614,262.500 214.614 C 258.740 214.614,257.202 214.672,259.082 214.744 M318.095 214.746 C 325.362 214.805,337.139 214.805,344.267 214.746 C 351.395 214.686,345.449 214.638,331.055 214.638 C 316.660 214.638,310.828 214.686,318.095 214.746 M95.410 264.332 C 95.786 264.430,96.401 264.430,96.777 264.332 C 97.153 264.234,96.846 264.153,96.094 264.153 C 95.342 264.153,95.034 264.234,95.410 264.332 M91.903 268.750 C 91.903 269.717,91.979 270.112,92.073 269.629 C 92.166 269.146,92.166 268.354,92.073 267.871 C 91.979 267.388,91.903 267.783,91.903 268.750 M168.457 285.035 C 168.833 285.133,169.448 285.133,169.824 285.035 C 170.200 284.937,169.893 284.856,169.141 284.856 C 168.389 284.856,168.081 284.937,168.457 285.035 M179.004 285.035 C 179.380 285.133,179.995 285.133,180.371 285.035 C 180.747 284.937,180.439 284.856,179.688 284.856 C 178.936 284.856,178.628 284.937,179.004 285.035 M83.301 285.837 C 84.966 285.910,87.690 285.910,89.355 285.837 C 91.021 285.764,89.658 285.704,86.328 285.704 C 82.998 285.704,81.636 285.764,83.301 285.837 M118.652 285.838 C 120.854 285.908,124.458 285.908,126.660 285.838 C 128.862 285.769,127.061 285.712,122.656 285.712 C 118.252 285.712,116.450 285.769,118.652 285.838 M220.313 285.824 C 231.637 286.100,241.317 286.107,241.151 285.840 C 241.051 285.679,235.311 285.585,228.395 285.631 C 221.479 285.677,217.842 285.764,220.313 285.824 M289.771 285.839 C 293.275 285.904,298.900 285.904,302.271 285.839 C 305.641 285.774,302.773 285.721,295.898 285.721 C 289.023 285.721,286.266 285.774,289.771 285.839 M80.185 303.516 C 80.185 304.482,80.261 304.878,80.354 304.395 C 80.447 303.911,80.447 303.120,80.354 302.637 C 80.261 302.153,80.185 302.549,80.185 303.516 M38.965 304.182 C 39.448 304.275,40.239 304.275,40.723 304.182 C 41.206 304.089,40.811 304.013,39.844 304.013 C 38.877 304.013,38.481 304.089,38.965 304.182 M28.997 311.328 C 28.997 312.080,29.077 312.388,29.176 312.012 C 29.274 311.636,29.274 311.021,29.176 310.645 C 29.077 310.269,28.997 310.576,28.997 311.328 M7.553 313.672 C 7.553 315.283,7.622 315.942,7.706 315.137 C 7.791 314.331,7.791 313.013,7.706 312.207 C 7.622 311.401,7.553 312.061,7.553 313.672 M166.504 318.629 C 166.880 318.727,167.495 318.727,167.871 318.629 C 168.247 318.530,167.939 318.450,167.188 318.450 C 166.436 318.450,166.128 318.530,166.504 318.629 M174.707 318.629 C 175.083 318.727,175.698 318.727,176.074 318.629 C 176.450 318.530,176.143 318.450,175.391 318.450 C 174.639 318.450,174.331 318.530,174.707 318.629 M175.293 334.651 C 175.776 334.744,176.567 334.744,177.051 334.651 C 177.534 334.558,177.139 334.481,176.172 334.481 C 175.205 334.481,174.810 334.558,175.293 334.651 M349.112 334.657 C 349.806 334.743,351.036 334.745,351.847 334.660 C 352.657 334.576,352.090 334.505,350.586 334.503 C 349.082 334.501,348.419 334.571,349.112 334.657 M313.424 347.070 C 313.425 349.219,313.491 350.048,313.570 348.913 C 313.649 347.778,313.648 346.020,313.568 345.006 C 313.488 343.993,313.423 344.922,313.424 347.070 M161.809 344.922 C 161.809 345.674,161.890 345.981,161.988 345.605 C 162.086 345.229,162.086 344.614,161.988 344.238 C 161.890 343.862,161.809 344.170,161.809 344.922 M362.989 345.508 C 362.993 346.367,363.073 346.673,363.167 346.187 C 363.260 345.701,363.257 344.998,363.159 344.624 C 363.061 344.251,362.985 344.648,362.989 345.508 M74.355 348.047 C 74.355 349.873,74.423 350.620,74.505 349.707 C 74.587 348.794,74.587 347.300,74.505 346.387 C 74.423 345.474,74.355 346.221,74.355 348.047 M336.059 347.070 C 336.061 348.359,336.134 348.840,336.221 348.138 C 336.308 347.435,336.306 346.381,336.217 345.794 C 336.127 345.207,336.056 345.781,336.059 347.070 M15.995 347.559 L 14.648 349.023 16.113 347.677 C 16.919 346.937,17.578 346.278,17.578 346.212 C 17.578 345.914,17.248 346.195,15.995 347.559 M114.955 348.633 C 114.958 349.707,115.034 350.100,115.124 349.506 C 115.214 348.913,115.211 348.034,115.119 347.553 C 115.026 347.073,114.953 347.559,114.955 348.633 M40.137 357.307 C 40.620 357.400,41.411 357.400,41.895 357.307 C 42.378 357.214,41.982 357.138,41.016 357.138 C 40.049 357.138,39.653 357.214,40.137 357.307 M199.727 374.901 C 201.833 374.971,205.173 374.971,207.149 374.900 C 209.125 374.829,207.402 374.772,203.320 374.772 C 199.238 374.773,197.621 374.830,199.727 374.901 M256.934 374.901 C 259.995 374.967,265.005 374.967,268.066 374.901 C 271.128 374.835,268.623 374.781,262.500 374.781 C 256.377 374.781,253.872 374.835,256.934 374.901 M375.879 374.900 C 377.544 374.973,380.269 374.973,381.934 374.900 C 383.599 374.827,382.236 374.767,378.906 374.767 C 375.576 374.767,374.214 374.827,375.879 374.900 M33.691 376.051 C 34.067 376.149,34.683 376.149,35.059 376.051 C 35.435 375.952,35.127 375.872,34.375 375.872 C 33.623 375.872,33.315 375.952,33.691 376.051 M117.285 376.051 C 117.661 376.149,118.276 376.149,118.652 376.051 C 119.028 375.952,118.721 375.872,117.969 375.872 C 117.217 375.872,116.909 375.952,117.285 376.051 M165.532 376.058 C 166.018 376.151,166.721 376.147,167.094 376.050 C 167.468 375.952,167.070 375.875,166.211 375.880 C 165.352 375.884,165.046 375.964,165.532 376.058 M169.238 376.061 C 169.829 376.151,170.796 376.151,171.387 376.061 C 171.978 375.972,171.494 375.898,170.313 375.898 C 169.131 375.898,168.647 375.972,169.238 376.061 M341.516 376.069 C 342.543 376.150,344.125 376.149,345.031 376.067 C 345.938 375.985,345.098 375.919,343.164 375.920 C 341.230 375.921,340.489 375.988,341.516 376.069 " stroke="none" fill="#d6b89f" fill-rule="evenodd"></path></g></svg>